# xmcd
#
# Track frame offsets: 
#        150
#        10175
#        22325
#        28122
#        38922
#        54372
#        69222
#        76947
#        87597
#        104752
#        113095
#        121797
#        136647
#        149190
#        153445
#        164622
#
# Disc length: 2428 seconds
#
# Revision: 8
# Processed by: cddbd v1.5.2PL0 Copyright (c) Steve Scherf et al.
# Submitted via: ExactAudioCopy v1.0b1
#
DISCID=d8097a10
DTITLE=Аквариум - Акустика
DYEAR=1982
DGENRE=Rock
TTITLE0=Укравший Дождь
TTITLE1=Нам всем будет лучше
TTITLE2=Граф Гарсиа
TTITLE3=Песня для нового быта
TTITLE4=Иванов
TTITLE5=Держаться Корней
TTITLE6=Моей Звезде
TTITLE7=10 стрел
TTITLE8=Почему не падает Небо
TTITLE9=Сталь
TTITLE10=II-е стеклянное Чудо
TTITLE11=С той стороны Зеркального Стекла
TTITLE12=25 к 10
TTITLE13=К Друзьям
TTITLE14=Золотых Лошадей
TTITLE15=Контрданс
EXTD=YEAR: 1982
EXTT0=
EXTT1=
EXTT2=
EXTT3=
EXTT4=
EXTT5=
EXTT6=
EXTT7=
EXTT8=
EXTT9=
EXTT10=
EXTT11=
EXTT12=
EXTT13=
EXTT14=
EXTT15=
PLAYORDER=
